<svg width="45" height="35" viewBox="0 0 45 35" fill="none" xmlns="http://www.w3.org/2000/svg">
<path d="M44.9057 11.2855V31.0227C44.9057 32.1165 44.5131 33.0528 43.7279 33.8317C42.9427 34.6106 41.9988 35 40.8962 35H4.00944C2.90684 35 1.96295 34.6106 1.17777 33.8317C0.39259 33.0528 0 32.1165 0 31.0227V11.2855C0.735063 12.0975 1.57871 12.8184 2.53095 13.4482C8.57853 17.5249 12.73 20.3835 14.9852 22.0241C15.9375 22.7202 16.7101 23.2629 17.3032 23.6523C17.8963 24.0418 18.6856 24.4395 19.6713 24.8455C20.657 25.2515 21.5758 25.4545 22.4278 25.4545H22.4779C23.3299 25.4545 24.2487 25.2515 25.2344 24.8455C26.22 24.4395 27.0094 24.0418 27.6025 23.6523C28.1955 23.2629 28.9682 22.7202 29.9204 22.0241C32.7604 19.9858 36.9202 17.1271 42.3998 13.4482C43.352 12.8019 44.1873 12.081 44.9057 11.2855ZM44.9057 3.97728C44.9057 5.28647 44.4964 6.53765 43.6778 7.73083C42.8592 8.924 41.8401 9.94318 40.6206 10.7884C34.3391 15.1136 30.4299 17.8066 28.893 18.8672C28.7258 18.9833 28.3708 19.236 27.828 19.6254C27.285 20.0148 26.834 20.3297 26.4748 20.5699C26.1156 20.8102 25.6812 21.0795 25.1717 21.3779C24.6622 21.6761 24.1819 21.8998 23.7308 22.049C23.2798 22.1982 22.8621 22.2728 22.4779 22.2728H22.4278C22.0435 22.2728 21.6259 22.1982 21.1748 22.049C20.7238 21.8998 20.2435 21.6761 19.7339 21.3779C19.2244 21.0795 18.7901 20.8102 18.4309 20.5699C18.0717 20.3296 17.6206 20.0148 17.0777 19.6254C16.5347 19.2359 16.1797 18.9832 16.0127 18.8672C14.4924 17.8066 12.3039 16.2944 9.44722 14.3306C6.59049 12.3668 4.87814 11.1861 4.31016 10.7884C3.27438 10.0923 2.29707 9.1353 1.37824 7.91725C0.459415 6.6992 0 5.56817 0 4.52415C0 3.23154 0.346649 2.15435 1.03995 1.2926C1.73325 0.430865 2.72308 0 4.00944 0H40.8962C41.9821 0 42.9218 0.389438 43.7154 1.16832C44.5089 1.94719 44.9057 2.88351 44.9057 3.97728Z" fill="#2C63B5"/>
</svg>
