<svg width="58" height="35" viewBox="0 0 58 35" fill="none" xmlns="http://www.w3.org/2000/svg">
<path d="M56.2438 2.37344C56.6392 1.00625 56.2438 0 54.342 0H48.0487C46.446 0 45.7088 0.864062 45.3135 1.82656C45.3135 1.82656 42.1081 9.82187 37.5778 15.0062C36.114 16.5047 35.4409 16.9859 34.6395 16.9859C34.2442 16.9859 33.6352 16.5047 33.6352 15.1375V2.37344C33.6352 0.732812 33.1864 0 31.8615 0H21.9676C20.9632 0 20.3649 0.765625 20.3649 1.47656C20.3649 3.02969 22.63 3.39062 22.8651 7.76562V17.2594C22.8651 19.3375 22.5018 19.7203 21.7005 19.7203C19.5635 19.7203 14.3708 11.6922 11.2936 2.50469C10.6739 0.721875 10.0649 0 8.45153 0H2.15829C0.363277 0 0 0.864062 0 1.82656C0 3.53281 2.13692 12.0094 9.94738 23.2094C15.1508 30.8547 22.4804 35 29.1476 35C33.1544 35 33.6459 34.0812 33.6459 32.4953C33.6459 25.1891 33.2826 24.5 35.2913 24.5C36.2208 24.5 37.8235 24.9813 41.5632 28.6672C45.837 33.0422 46.5422 35 48.9355 35H55.2288C57.0238 35 57.932 34.0812 57.4085 32.2656C56.2118 28.4484 48.1235 20.5953 47.7602 20.0703C46.8307 18.8453 47.0978 18.2984 47.7602 17.2047C47.7709 17.1938 55.4532 6.125 56.2438 2.37344Z" fill="#2C63B5"/>
</svg>
